<svg width="400" height="464" viewBox="0 0 400 464" fill="none" xmlns="http://www.w3.org/2000/svg">
<path d="M200 294.332H207.425C238.437 290.644 262.491 264.144 262.491 231.997C262.491 197.327 234.512 169.22 200 169.22C165.488 169.22 137.509 197.327 137.509 231.997C137.509 266.668 165.488 294.775 200 294.775V294.332ZM250.841 29.4881L300 58L400 116V348L300 406L200 464V345.855C137.409 345.855 86.668 294.881 86.668 232.003C86.668 187.491 112.099 148.95 149.159 130.228V88.4668L50.8435 145.491V318.512L149.159 375.536V434.512L100 406L0 347.997V115.997L100 57.9974L200 0V118.145C262.591 118.145 313.332 169.119 313.332 231.997C313.332 276.509 287.901 315.05 250.841 333.772V375.533L349.156 318.509V145.488L250.841 88.4642V29.4881Z" fill="#FECB00"/>
</svg>
