<svg width="102" height="35" viewBox="0 0 102 35" fill="none" xmlns="http://www.w3.org/2000/svg">
<path d="M14.8839 22.2018H15.4364C17.7443 21.9236 19.5344 19.9246 19.5344 17.4998C19.5344 14.8846 17.4522 12.7644 14.8839 12.7644C12.3155 12.7644 10.2333 14.8846 10.2333 17.4998C10.2333 20.115 12.3155 22.2352 14.8839 22.2352V22.2018ZM18.6674 2.22432L29.7677 8.75V26.25L14.8839 35V26.0882C10.2259 26.0882 6.44978 22.2432 6.44978 17.5002C6.44978 14.1426 8.34231 11.2354 11.1003 9.8232V6.67314L3.78374 10.9745V24.0257L11.1003 28.327V32.7757L0 26.2498V8.7498L14.8839 0V8.91183C19.5418 8.91183 23.318 12.7568 23.318 17.4998C23.318 20.8574 21.4254 23.7646 18.6674 25.1768V28.3269L25.984 24.0255V10.9743L18.6674 6.67295V2.22432Z" fill="#FECB00"/>
<path d="M38.6743 24.9537H35.9726V14.1073H36.6258L37.5164 15.3935C37.9519 14.9884 38.4467 14.6779 39.0009 14.4618C39.5551 14.239 40.129 14.1276 40.7228 14.1276H43.1078V16.8822H40.7228C40.4391 16.8822 40.1719 16.9362 39.9212 17.0443C39.6705 17.1523 39.4528 17.3008 39.2681 17.4899C39.0833 17.6789 38.9382 17.9017 38.8326 18.1583C38.7271 18.4148 38.6743 18.6883 38.6743 18.9786V24.9537Z" fill="#FECB00"/>
<path d="M48.3825 22.3003C48.488 22.3341 48.5936 22.3577 48.6991 22.3712C48.8047 22.378 48.9103 22.3814 49.0158 22.3814C49.2797 22.3814 49.5337 22.3442 49.7778 22.27C50.0219 22.1957 50.2495 22.091 50.4607 21.956C50.6784 21.8142 50.8697 21.6454 51.0346 21.4497C51.2062 21.2471 51.3447 21.0243 51.4503 20.7812L53.4295 22.8168C53.1788 23.1814 52.8885 23.5089 52.5587 23.7992C52.2354 24.0895 51.8824 24.3359 51.4998 24.5385C51.1237 24.741 50.7246 24.8929 50.3023 24.9942C49.8867 25.1022 49.4578 25.1562 49.0158 25.1562C48.2703 25.1562 47.5677 25.0145 46.9079 24.7309C46.2548 24.4473 45.6808 24.0524 45.186 23.546C44.6978 23.0396 44.3118 22.4388 44.0281 21.7433C43.7444 21.0412 43.6026 20.2715 43.6026 19.4343C43.6026 18.5769 43.7444 17.7937 44.0281 17.0848C44.3118 16.3759 44.6978 15.7716 45.186 15.272C45.6808 14.7724 46.2548 14.3842 46.9079 14.1073C47.5677 13.8305 48.2703 13.6921 49.0158 13.6921C49.4578 13.6921 49.89 13.7461 50.3122 13.8542C50.7345 13.9622 51.1336 14.1175 51.5097 14.32C51.8923 14.5226 52.2486 14.7724 52.5784 15.0694C52.9083 15.3598 53.1986 15.6872 53.4493 16.0518L48.3825 22.3003ZM49.7679 16.5987C49.6426 16.5514 49.5172 16.521 49.3919 16.5075C49.2731 16.494 49.1478 16.4873 49.0158 16.4873C48.6464 16.4873 48.2967 16.5582 47.9668 16.6999C47.6435 16.835 47.3599 17.0308 47.1157 17.2873C46.8782 17.5439 46.6902 17.8545 46.5517 18.219C46.4131 18.5769 46.3438 18.982 46.3438 19.4343C46.3438 19.5356 46.3471 19.6504 46.3537 19.7786C46.3669 19.9069 46.3834 20.0386 46.4032 20.1736C46.4296 20.3019 46.4593 20.4268 46.4923 20.5483C46.5253 20.6698 46.5682 20.7779 46.6209 20.8724L49.7679 16.5987Z" fill="#FECB00"/>
<path d="M65.9482 10.4311L61.2871 24.9537H58.4469L53.8056 10.4311H57.0317L59.862 20.123L62.7022 10.4311H65.9482Z" fill="#FECB00"/>
<path d="M76.3788 24.9537H75.7256L74.6766 23.465C74.4193 23.7013 74.1455 23.9241 73.8552 24.1334C73.5716 24.3359 73.2714 24.5149 72.9547 24.6701C72.638 24.8187 72.3114 24.9368 71.975 25.0246C71.6451 25.1124 71.3086 25.1562 70.9656 25.1562C70.22 25.1562 69.5174 25.028 68.8577 24.7714C68.2045 24.5149 67.6305 24.1435 67.1357 23.6574C66.6475 23.1645 66.2616 22.5637 65.9779 21.8547C65.6942 21.1458 65.5523 20.339 65.5523 19.4343C65.5523 18.5904 65.6942 17.8173 65.9779 17.1152C66.2616 16.4062 66.6475 15.7986 67.1357 15.2922C67.6305 14.7859 68.2045 14.3943 68.8577 14.1175C69.5174 13.8339 70.22 13.6921 70.9656 13.6921C71.3086 13.6921 71.6484 13.736 71.9849 13.8238C72.3213 13.9116 72.6479 14.0331 72.9646 14.1884C73.2813 14.3437 73.5815 14.5259 73.8651 14.7352C74.1554 14.9445 74.4259 15.1707 74.6766 15.4138L75.7256 14.1276H76.3788V24.9537ZM73.6573 19.4343C73.6573 19.0562 73.5847 18.6916 73.4396 18.3406C73.3011 17.9827 73.1097 17.6688 72.8656 17.3987C72.6215 17.1219 72.3345 16.9025 72.0047 16.7404C71.6814 16.5717 71.335 16.4873 70.9656 16.4873C70.5961 16.4873 70.2464 16.5514 69.9166 16.6797C69.5933 16.808 69.3096 16.997 69.0655 17.2468C68.828 17.4966 68.64 17.8072 68.5014 18.1785C68.3629 18.5431 68.2936 18.9617 68.2936 19.4343C68.2936 19.9069 68.3629 20.3289 68.5014 20.7002C68.64 21.0648 68.828 21.372 69.0655 21.6218C69.3096 21.8716 69.5933 22.0607 69.9166 22.1889C70.2464 22.3172 70.5961 22.3814 70.9656 22.3814C71.335 22.3814 71.6814 22.3003 72.0047 22.1383C72.3345 21.9695 72.6215 21.7501 72.8656 21.48C73.1097 21.2032 73.3011 20.8893 73.4396 20.5382C73.5847 20.1804 73.6573 19.8124 73.6573 19.4343Z" fill="#FECB00"/>
<path d="M86.2354 23.6878C86.0177 23.8903 85.7834 24.0828 85.5327 24.265C85.2886 24.4406 85.0313 24.5959 84.7608 24.7309C84.4903 24.8592 84.21 24.9605 83.9197 25.0347C83.636 25.1157 83.3457 25.1562 83.0488 25.1562C82.3957 25.1562 81.7821 25.0381 81.2081 24.8018C80.6341 24.5655 80.1294 24.2313 79.694 23.7992C79.2652 23.3603 78.9254 22.8303 78.6747 22.2092C78.4306 21.5813 78.3085 20.8791 78.3085 20.1027V14.1073H81.0003V20.1027C81.0003 20.4673 81.0531 20.7948 81.1586 21.0851C81.2708 21.3686 81.4192 21.6083 81.604 21.8041C81.7887 21.9999 82.0031 22.1484 82.2472 22.2497C82.4979 22.351 82.7651 22.4016 83.0488 22.4016C83.3259 22.4016 83.5865 22.3375 83.8306 22.2092C84.0813 22.0742 84.299 21.8986 84.4837 21.6826C84.6685 21.4665 84.8136 21.2235 84.9192 20.9534C85.0247 20.6766 85.0775 20.393 85.0775 20.1027V14.1073H87.7792V24.9537H87.126L86.2354 23.6878Z" fill="#FECB00"/>
<path d="M92.5689 24.9537H89.8475V9.79311H92.5689V24.9537Z" fill="#FECB00"/>
<path d="M99.9515 24.9537C99.2983 24.9537 98.6848 24.8288 98.1108 24.579C97.5368 24.3224 97.0321 23.9747 96.5967 23.5359C96.1678 23.0903 95.8281 22.5738 95.5774 21.9864C95.3333 21.399 95.2112 20.7711 95.2112 20.1027V16.8822H93.895V14.1276H95.2112V9.79311H97.903V14.1276H102V16.8822H97.903V20.1027C97.903 20.393 97.9558 20.6665 98.0613 20.923C98.1669 21.1728 98.312 21.3923 98.4967 21.5813C98.6815 21.7703 98.8992 21.9223 99.1499 22.037C99.4006 22.1451 99.6678 22.1991 99.9515 22.1991H102V24.9537H99.9515Z" fill="#FECB00"/>
</svg>
